<svg width="14" height="14" viewBox="0 0 14 14" fill="none" xmlns="http://www.w3.org/2000/svg">
<path d="M14 14V8.86668C14 6.37779 13.4556 4.43334 10.5 4.43334C9.1 4.43334 8.16667 5.21112 7.77778 5.91112H7.7V4.66668H4.97778V14H7.85556V9.33334C7.85556 8.0889 8.08889 6.92223 9.56667 6.92223C11.0444 6.92223 11.0444 8.32223 11.0444 9.41112V14H14Z" fill="#FFD700"/>
<path d="M0.233334 4.66667H3.11111V14H0.233334V4.66667Z" fill="#FFD700"/>
<path d="M1.71111 0C0.777778 0 0 0.777778 0 1.71111C0 2.64444 0.777778 3.42222 1.71111 3.42222C2.64444 3.42222 3.42222 2.64444 3.42222 1.71111C3.34444 0.777778 2.64444 0 1.71111 0Z" fill="#FFD700"/>
</svg>
