<svg width="15" height="15" viewBox="0 0 15 15" fill="none" xmlns="http://www.w3.org/2000/svg">
<path d="M7.00988 3.4C5.00988 3.4 3.40988 5 3.40988 7C3.40988 9 5.00988 10.6 7.00988 10.6C9.00988 10.6 10.6099 9 10.6099 7C10.6099 5 9.00988 3.4 7.00988 3.4ZM7.00988 9.3C5.70988 9.3 4.70988 8.3 4.70988 7C4.70988 5.7 5.70988 4.7 7.00988 4.7C8.30988 4.7 9.30988 5.7 9.30988 7C9.30988 8.3 8.30988 9.3 7.00988 9.3Z" fill="#FFD700"/>
<path d="M9.90988 0C8.60988 0 5.40988 0 4.10988 0C3.00988 0.1 2.00988 0.4 1.20988 1.2C-0.190123 2.5 0.00987654 4.3 0.00987654 7C0.00987654 9.7 -0.190123 11.5 1.20988 12.8C2.50988 14.2 4.40988 14 7.00988 14C9.70988 14 10.6099 14 11.6099 13.6C12.9099 13.1 13.9099 11.9 14.0099 9.9C14.0099 8.6 14.0099 5.4 14.0099 4.1C13.8099 1.7 12.5099 0.2 9.90988 0ZM11.9099 11.9C11.0099 12.8 9.80988 12.7 7.00988 12.7C4.10988 12.7 2.90988 12.7 2.10988 11.9C1.10988 10.9 1.30988 9.4 1.30988 7C1.30988 3.8 1.00988 1.5 4.20988 1.3C4.90988 1.3 5.20988 1.3 7.00988 1.3C10.1099 1.3 12.5099 1 12.7099 4.2C12.7099 4.9 12.7099 5.2 12.7099 7C12.7099 9.9 12.8099 11.1 11.9099 11.9Z" fill="#FFD700"/>
<path d="M10.7099 4.1C11.1517 4.1 11.5099 3.74183 11.5099 3.3C11.5099 2.85817 11.1517 2.5 10.7099 2.5C10.268 2.5 9.90988 2.85817 9.90988 3.3C9.90988 3.74183 10.268 4.1 10.7099 4.1Z" fill="#FFD700"/>
</svg>
