<svg width="14" height="12" viewBox="0 0 14 12" fill="none" xmlns="http://www.w3.org/2000/svg">
<path d="M12.6 2.8C13.2 2.4 13.6 1.9 14 1.3C13.5 1.5 12.9 1.7 12.3 1.8C12.9 1.4 13.3 0.9 13.6 0.2C13 0.5 12.4 0.8 11.8 0.9C11.3 0.3 10.5 0 9.7 0C8.1 0 6.8 1.3 6.8 2.9C6.8 3.1 6.8 3.3 6.9 3.6C4.5 3.4 2.4 2.3 1 0.5C0.7 1 0.6 1.4 0.6 2C0.6 3 1.1 3.9 1.9 4.4C1.4 4.3 0.9 4.2 0.6 4C0.6 5.4 1.6 6.6 2.9 6.8C2.6 6.9 2.4 7 2.1 7C1.9 7 1.7 7 1.6 7C2 8.1 3 9 4.3 9C3.3 9.8 2.1 10.2 0.7 10.2C0.5 10.2 0.2 10.2 0 10.2C1.3 11 2.8 11.5 4.4 11.5C9.5 11.4 12.8 7.1 12.6 2.8Z" fill="#051C2C"/>
</svg>
